<svg id="Layer_1" enable-background="new 0 0 512 512" height="512" viewBox="0 0 512 512" width="512" xmlns="http://www.w3.org/2000/svg"><g><path d="m512 105.004v293.58c0 7.83-6.35 14.18-14.18 14.18h-483.64c-7.83 0-14.18-6.35-14.18-14.18v-293.59l256-30 228.56 26.79 27.43 3.21c.01 0 .01 0 .01.01z" fill="#d9f9f8"/><path d="m512 105.004v293.58c0 7.83-6.35 14.18-14.18 14.18h-483.64c-7.83 0-14.18-6.35-14.18-14.18v-14.69h464.39c11.14 0 20.17-9.03 20.17-20.17v-261.94l27.43 3.21c.01 0 .01 0 .01.01z" fill="#c1eaf4"/><path d="m512 36.934v68.06h-512v-68.06c0-7.83 6.35-14.17 14.18-14.17h483.64c7.83 0 14.18 6.34 14.18 14.17z" fill="#466175"/><path d="m512 36.934v68.06h-27.44v-82.23h13.26c7.83 0 14.18 6.34 14.18 14.17z" fill="#2d4859"/><g><path d="m72.671 57.641h-30.794c-4.142 0-7.5 3.358-7.5 7.5s3.358 7.5 7.5 7.5h30.793c4.142 0 7.5-3.358 7.5-7.5s-3.357-7.5-7.499-7.5z" fill="#ff6986"/><path d="m138.464 57.641h-30.793c-4.142 0-7.5 3.358-7.5 7.5s3.358 7.5 7.5 7.5h30.793c4.142 0 7.5-3.358 7.5-7.5s-3.358-7.5-7.5-7.5z" fill="#ffe45c"/><path d="m204.464 57.641h-30.793c-4.142 0-7.5 3.358-7.5 7.5s3.358 7.5 7.5 7.5h30.793c4.142 0 7.5-3.358 7.5-7.5s-3.358-7.5-7.5-7.5z" fill="#4fe8bc"/></g><g><path d="m383.5 260.291v101.64l-20.17 11.38-107.33 60.58-127.5-71.96v-101.64c0-4.14 3.36-7.5 7.5-7.5h240c4.14 0 7.5 3.36 7.5 7.5z" fill="#466175"/><path d="m376 252.791h-240c-4.14 0-7.5 3.36-7.5 7.5v32.04l115.24 46.96c3.91 1.6 8.04 2.4 12.26 2.4s8.35-.8 12.26-2.4l95.07-38.741v72.761l20.17-11.38v-101.64c0-4.14-3.36-7.5-7.5-7.5z" fill="#2d4859"/><path d="m383.5 361.931v61.54c0 3.05-1.85 5.8-4.67 6.95l-120 48.9c-.91.37-1.87.56-2.83.56s-1.92-.19-2.83-.56l-120-48.9c-2.82-1.15-4.67-3.9-4.67-6.95v-61.54l127.5 51.96 107.33-43.74z" fill="#4fe8bc"/><path d="m383.5 361.931v61.54c0 3.05-1.85 5.8-4.67 6.95l-120 48.9c-.91.37-1.87.56-2.83.56s-1.92-.19-2.83-.56l-120-48.9c-2.82-1.15-4.67-3.9-4.67-6.95v-19.79l124.67 51.55c.91.37 1.87.56 2.83.56s1.92-.19 2.83-.56l99.83-39.81c2.82-1.15 4.67-3.9 4.67-6.95v-38.32z" fill="#17c6a5"/><path d="m433.029 231.262-174.199-70.987c-1.814-.739-3.846-.739-5.66 0l-174.199 70.987c-2.824 1.15-4.67 3.896-4.67 6.945s1.846 5.795 4.67 6.945l174.199 70.987c.907.37 1.869.555 2.83.555s1.923-.185 2.83-.555l174.199-70.987c2.824-1.15 4.67-3.896 4.67-6.945s-1.846-5.795-4.67-6.945z" fill="#4fe8bc"/><path d="m262.945 245.407c-1.563-3.836-5.944-5.679-9.775-4.115l-82.3 33.537c-2.824 1.15-4.67 3.896-4.67 6.945v199.962c0 4.142 3.358 7.5 7.5 7.5s7.5-3.358 7.5-7.5v-194.925l77.63-31.629c3.836-1.563 5.679-5.94 4.115-9.775z" fill="#fff683"/></g></g></svg>